<?xml version="1.0" encoding="utf-8"?>
<!-- Generator: Adobe Illustrator 23.0.1, SVG Export Plug-In . SVG Version: 6.00 Build 0)  -->
<svg version="1.1" id="Layer_1" xmlns="http://www.w3.org/2000/svg" xmlns:xlink="http://www.w3.org/1999/xlink" x="0px" y="0px"
	 viewBox="0 0 300 200" style="enable-background:new 0 0 300 200;" xml:space="preserve">
<style type="text/css">
	.st0{fill:#FFFFFF;}
</style>
<g>
	<path class="st0" d="M90.89,68.52l-9.52,6.36l-9.81-14.7l9.52-6.36L90.89,68.52L90.89,68.52L90.89,68.52z"/>
	<path class="st0" d="M98.63,112.68l16.27,24.38L95.52,150l-16.27-24.38l-2.84-4.25l19.38-12.93L98.63,112.68L98.63,112.68
		L98.63,112.68z"/>
	<path class="st0" d="M74.22,128.97l3.58,5.37l-14.75,9.85l-6.42-9.62l3.22-2.15l11.53-7.69L74.22,128.97L74.22,128.97L74.22,128.97
		z"/>
	<path class="st0" d="M106.69,101.16l4.14-2.76l6.42,9.62l-9.52,6.36l-3.58-5.37l5.39-3.59L106.69,101.16L106.69,101.16
		L106.69,101.16L106.69,101.16z M104.14,109l-2.84-4.25l5.39-3.59l2.84,4.25L104.14,109L104.14,109L104.14,109L104.14,109z"/>
	<path class="st0" d="M39.91,102.54l-3.22,2.15l-9.81-14.7l14.75-9.85l6.88,10.31l-11.53,7.69l11.53-7.69l2.93,4.4L39.91,102.54
		L39.91,102.54L39.91,102.54z"/>
	<path class="st0" d="M75.85,78.55L56.47,91.49l-2.93-4.4L37.42,62.93L56.8,50l16.12,24.15L75.85,78.55z"/>
	<path class="st0" d="M86.75,71.28l-5.39,3.59l-2.93-4.4l-6.88-10.31l9.52-6.36l9.81,14.7L86.75,71.28L86.75,71.28L86.75,71.28z"/>
	<path class="st0" d="M62.69,136.67l-2.84-4.25l11.53-7.69l2.84,4.25L62.69,136.67L62.69,136.67L62.69,136.67z"/>
	<path class="st0" d="M104.14,109l-2.84-4.25l5.39-3.59l2.84,4.25L104.14,109L104.14,109L104.14,109z"/>
	<path class="st0" d="M39.91,102.54l-2.93-4.4l11.53-7.69l2.93,4.4L39.91,102.54L39.91,102.54L39.91,102.54z"/>
	<path class="st0" d="M81.37,74.87l-2.93-4.4l5.39-3.59l2.93,4.4L81.37,74.87L81.37,74.87L81.37,74.87z"/>
	<path class="st0" d="M98.63,112.68l-19.38,12.93l-2.84-4.25l19.38-12.93L98.63,112.68L98.63,112.68L98.63,112.68z"/>
	<path class="st0" d="M72.92,74.15l2.93,4.4L56.47,91.49l-2.93-4.4L72.92,74.15L72.92,74.15L72.92,74.15z"/>
	<path class="st0" d="M34.41,70.64l3.66,5.48l-5.48,3.66l-3.66-5.48L34.41,70.64L34.41,70.64z"/>
	<path class="st0" d="M54.17,136.36l3.66,5.48l-5.48,3.66l-3.66-5.48L54.17,136.36L54.17,136.36z"/>
	<path class="st0" d="M39.75,141.88L23.7,117.64l85.78-57.37l16.83,23.86L39.75,141.88L39.75,141.88L39.75,141.88L39.75,141.88z"/>
</g>
<g>
	<polygon class="st0" points="240.79,59.6 224.23,50 206.94,60.68 223.76,69.94 	"/>
	<path class="st0" d="M248.75,63.72l-17.13,10.34l19.39,11.24v29.48l-26.14,14.74l-25.89-14.71V91.96l-17.34-8.83v41.84L224.23,150
		l44.13-25.02V74.99L248.75,63.72z"/>
</g>
<g>
	<path class="st0" d="M147.43,99.19h-9.07v-5.13h9.07v-9.14h5.13v9.14h9.07v5.13h-9.07v9.02h-5.13V99.19z"/>
</g>
</svg>
