<?xml version="1.0" encoding="utf-8"?>
<!-- Generator: Adobe Illustrator 21.0.2, SVG Export Plug-In . SVG Version: 6.00 Build 0)  -->
<svg version="1.1" xmlns="http://www.w3.org/2000/svg" xmlns:xlink="http://www.w3.org/1999/xlink" x="0px" y="0px"
	 viewBox="0 0 1000 1000" style="enable-background:new 0 0 1000 1000;" xml:space="preserve">
<style type="text/css">
	.st0{fill:white;}
</style>
<g id="logo">
	<path class="st0" d="M96.3,787.5c-3.6-4.8-7.1-9.7-10.4-14.7C89.2,777.8,92.7,782.7,96.3,787.5z"/>
	<path class="st0" d="M121.8,819.4c9.9,11.4,20.4,22.5,31.5,33.1c37.2,36,81.5,66.2,129,89.1c17.6,8.1,33.7,16.4,52.7,23.6
		c4.7,1.8,9.6,3.7,14.6,5.4s10.4,3.2,16,4.8s11.4,2.9,17.6,4.2c6.2,1.3,12.5,2.6,19.4,3.3c-34-7.1-67.3-17.7-99.1-31.7
		c-31.9-14.2-62.3-31.6-90.7-52c-56.7-40.9-105.2-93.3-140.6-153.3c-2.3-3.1-4.4-6.3-6.3-9.6l-4.3-7.1c-1.4-2.6-2.8-5.4-4.3-8.2
		c-2.9-5.7-6.2-11.5-8.7-17.1c-2.5-5.6-5.1-10.6-7.1-14.5c10.4,25.4,23.1,49.9,37.9,73c6.5,10.2,13.4,20.2,20.8,30.1
		c-1-1.4-2.1-2.7-3.1-4.1C104.8,799,113,809.3,121.8,819.4L121.8,819.4z"/>
	<path class="st0" d="M97,788.4l-0.7-0.9L97,788.4z"/>
	<path class="st0" d="M7.2,560.8c-0.9-6.7-1.7-13.6-2.6-20.5c1.4,12.5,3,26.5,5.9,40.5c-0.6-3.3-1.2-6.6-1.8-9.9
		C8.1,567.6,7.5,564.2,7.2,560.8z"/>
	<path class="st0" d="M461.3,981.4c36.7,3.5,73.6,2.5,110-3.2c36.3-5.7,71.9-15.4,106.1-28.8c-60.8,23.4-125.6,34.5-190.8,32.6
		C478.1,981.9,469.6,982,461.3,981.4z"/>
	<path class="st0" d="M249.6,909.5l-1.4-0.9L249.6,909.5z"/>
	<path class="st0" d="M248.2,908.6c-4.6-2.9-9.1-5.8-13.5-8.8C239.1,902.8,243.6,905.7,248.2,908.6z"/>
	<path class="st0" d="M234.7,899.8c-4.8-3.3-9.7-6.6-14.3-10C225,893.2,229.8,896.5,234.7,899.8z"/>
	<path class="st0" d="M301.5,937.6c29.5,13.5,60.3,23.8,92,30.8c-50.9-11.5-99.5-31.4-143.9-58.9C266.2,920,283.6,929.4,301.5,937.6
		z"/>
	<path class="st0" d="M951.5,566.4c0.5-8.4,1.6-17.1,1.9-21.3c2.9-24.1,4.2-48.4,4-72.7c-0.6-4.1-2.3-11.9-3-20.7s-2-17.5-3-26
		c-1.6-8.5-2.9-16.8-4.6-25.1c12,59.8,12.3,121.4,0.8,181.3C948.8,576.4,950.2,571.2,951.5,566.4z"/>
	<path class="st0" d="M4.9,441.5c4.6-36.5,14.2-72.1,23.5-95.8l-3.7,17.3c2.3-5.1,6-16.9,11.1-29.4c1.2-3.1,2.4-6.3,3.7-9.5l4-9.2
		c2.7-6,5-11.6,7.3-16c-1.6,4.1-3.2,8.5-5.1,12.9s-3.9,8.9-5.9,13.4l8.1-18c-8.2,20.2-15.3,40.9-21.2,61.9
		c-6.1,22.6-10.6,45.7-13.5,68.9c-0.8,5.4-1,10.7-1.5,15.7c-0.5,5-1,9.9-1,14.4c-0.2,9.1-0.5,17-0.4,23.4
		c0.6,12.7,1.3,19.1,2.5,15.5c2.2-7,2.2-43.3,9.9-88.7c4.4-24.3,10.4-48.3,18-71.7c7.9-23.6,17.7-46.6,29.2-68.7l-3.2,6.8l-2.9,7
		c-2,4.7-4,9.5-6,14.2l-5.5,14.7c-0.9,2.5-1.9,4.9-2.8,7.4c-0.9,2.5-1.7,5.1-2.5,7.6c-7.1,20.1-12.4,41.3-17,62.7l-3,16.1
		c-1.1,5.4-1.6,10.8-2.4,16.2c-1.7,10.8-2.3,21.7-3.3,32.4c-1.1,21.5-1.3,42.8,0.7,63.2c-0.1-4.8-0.2-9.1-0.1-13.3
		c0.1-4.1,0.4-8.2,0.6-12.5c0.2-4.3,0.2-8.8,0.6-14s0.7-11.1,1-18c2.2-34.9,8.3-69.5,18.3-103c9.4-33.6,20.5-63.2,37-90.1
		c1.4-2.7,2.9-5.4,4.3-8.1c2.9-5.4,5.3-10.8,8.4-16.2c3.5-6,6.9-10.4,9.6-14.5s5.2-7.6,7.9-11.1l19.8-26.9c0.4,0-0.1,1-1.1,2.5
		c3.3-4.6,6.8-9,10.6-13.2c4.1-4.6,8-9.5,11.3-13.6c1.2,0,2.4-0.5,3.4-1.3C200.3,124.7,257.5,85.1,322,60.1l14.3-5.5l14.5-4.8
		l7.2-2.4l7.3-2l14.6-4c8.3-2,16.8-4,25.4-5.8l13.1-2.2c4.4-0.7,8.8-1.6,13.4-2c9-1.1,16.9-3.3,21.1-3.9c24.8-1.3,49.7-1,74.5,1.1
		c2.1,0,5.5,0.2,9.3,0.4c3.9,0.2,8.3,0.3,12.5,0.7c5,1.1,10.4,2.2,16,3.3c33.9,5.3,67,14.3,98.8,27V60l12.1,4.7l12.3,5.6
		c8.5,3.6,16.7,8.2,25.3,12.6c4.3,2.1,8.3,4.8,12.6,7.2s8.5,4.7,12.5,7.5c8.1,5.3,16.3,10.4,23.9,16c12.9,9.1,24.8,18.5,35.5,27.5
		c0.2,0.2,0.5,0.4,0.8,0.6c0.1,0.1,0.2,0.1,0.2,0.2l7.8,7l7.5,7.4l7.5,7.4c2.5,2.5,4.8,5.1,7.2,7.7c-1.2-1.8-1.1-2.6-1.1-3.3
		l-12.4-11.7c7.2,6.5,13.5,12.3,18.7,17.1c2,2.5,4.2,5,6.2,7.7l6.4,8.3l6.8,8.6l6.8,9.3c12,15,22.5,31.1,32.5,47.4
		c4.7,8.4,9.8,16.6,13.9,25.2l6.5,12.9l5.8,13.3c1.7,2.8,1,0.1,1.2-0.4c6.5,15.8,12,31.9,16.7,48.4c9.2,29.6,15.3,60.1,18.3,91
		c1.2,7.3,1.7,14.7,2.8,22c-0.2,4.2-0.4,9.4-0.7,15.5c0,5.8,0.3,11.7,0,17.5s-0.5,11.7-0.7,17.6c-0.1,4-0.7,8.3-1,13
		s-0.7,9.8-1.4,15.1c-0.7,5.3-1.4,11-2.2,16.9s-2.1,12-3.1,18.3c-5.2,27.9-13,55.3-23.2,81.9c-0.9,3.3-1.9,6.6-3.2,9.8
		c-3.4,7.9-7,15.6-10.4,23.2c-3.9,7.4-7.5,14.7-11.4,21.7c-12.3,23-26.6,44.9-42.7,65.5c-1.8,2.3-3.5,4.7-5.3,6.9l-5.4,6.4
		c-3.5,4.1-6.7,8.2-10.1,11.8c-6.7,7.1-12.4,13.8-17.7,18.8c-6.1,6.2-5.5,6.5-1.3,3.5c2.1-1.5,5.1-3.8,8.6-6.7l11.4-10.1
		c4.2-3.6,8.2-7.6,12-11.4s7.6-7.3,10.5-10.5c5.9-6.3,9.8-10.2,9-8.4c-9.6,17.7-27,39.5-52.4,63.6c-13,11.8-27.6,24.6-44.8,36.9
		c-8.4,6.5-17.8,12.4-27.3,18.8c-9.9,5.9-19.9,12.4-31,18.2c-24.1,12.9,18.1-7.8,19.2-8c-4.1,3.2-8.3,6.1-12.8,8.7
		c-7.9,4.2-15.8,8.4-24,12c-4.8,2.2-9.5,4.5-14.4,6.5l-14.7,5.9l7.8-3c15.1-6,29.8-12.9,44.1-20.7c-5,3-10.5,6.5-16.6,9.6
		c-6.5,3.3-13.2,6.9-19.9,10.1s-13.4,6.1-19.5,8.9c69.7-24.9,133.8-66.1,184.5-119.9c25.4-26.8,48-56.2,66.5-88.1
		c18.6-31.7,33.5-65.5,44.6-100.5c-16.7,51.2-42.1,99.1-75.2,141.6c58.3-77.6,92-170.9,96.8-267.8c0,5.3-0.5,10.7-0.9,16
		c-0.4,5.3-0.7,10.7-1.3,16c-1.4,10.6-2.4,21.3-4.5,31.8c-3.3,21.1-8.8,41.9-15,62.5c12.2-37.1,19.4-76.3,22.3-115.7
		s0.5-79-5.7-117.5c10.6,50.9,12.4,108.5,3.3,165.5c6.2-37,8.1-74.7,5.5-112.2c-0.5-14.3-2.3-28.6-3.7-41.8c-2-13.1-3.6-25.2-5.5-35
		c6.7,31.6,10.9,63.7,12.3,95.9c-1.4-64.7-15.3-128.4-41-187.8c14.3,32.7,26,68,33.2,104.2c7.2,35.8,10.1,72.3,8.5,108.8
		c-0.1-4.2,0.1-8.3-0.2-12.5s-0.4-8.4-0.6-12.6c1.9,85.4-18.3,169.9-58.6,245.2c-13.3,24.7-28.7,48.3-46,70.4
		c19.7-22.7,40.6-54.8,57.2-90c16.6-35.2,28.8-73.5,37.3-106.8c-12.9,61.4-37.7,119.8-73,171.7C831.4,880.3,718.1,955,589.8,979.8
		c-62.1,12.2-125.9,12.8-188.2,1.6l16.1,3c5.4,1,10.9,1.6,16.3,2.3c10.8,1.7,21.8,2.4,32.7,3.3c21.9,1.2,43.9,1.6,65.9,0
		c22-1.1,43.8-4.4,65.6-8.3c10.8-2.4,21.7-4.4,32.3-7.5c5.3-1.5,10.8-2.8,16.1-4.4l15.9-5.1c-8,2.4-16.5,5.7-25.5,8.1l-11.3,3.3
		c23.7-6.2,46.9-14.2,69.4-23.8c10.2-4.4,20.4-9.2,30.4-14.3c-18.7,9.7-37.9,18.3-57.6,25.8c-37.6,13.8-76.7,23.4-116.4,28.5
		c-6,0.9-11.4,1.2-16.3,1.7l-13,1.3c-7.7,0.6-13.4,0.9-17.3,1.3c-7.9,0.8-9.1,1.5-5.9,2.1c3.2,0.6,10.6,1.1,19.8,1.3
		c9.1,0,19.9-0.5,29.8-1.4c95.7-9.6,186.7-46.1,262.4-105.3c72.8-57.2,128.6-133.1,159.7-219.3c2-5,3.5-10.2,5.1-15.3
		s3.3-10.2,4.7-15.4c2.6-10.4,5.8-20.7,7.8-31.3l3.3-15.8l2.6-15.9l1.3-8l0.9-8l1.8-16c3.7-43,2.3-86.2-4.4-128.9
		c-3.9-26.5-9.9-52.6-17.8-78.1c-2.1-6.3-4.2-12.5-6.2-18.4c-2.2-5.9-4.4-11.4-6.5-16.6l-3-7.5c-1.1-2.4-2.1-4.6-3.1-6.7l-5.3-11.2
		c-35.3-69.5-85.9-130.1-148.1-177.1l-12.1-9l-12.5-8.5l-6.3-4.3l-6.5-4l-13-8c-17.7-10.1-35.8-19.8-55-27.8
		c-18.9-8.4-38.7-15.3-58.9-21.4c-10.2-2.7-20.3-5.8-30.8-7.9c-5.2-1.1-10.4-2.4-15.6-3.4l-15.8-2.7C539,0.1,499.8-1.6,460.9,1.4
		c-39.3,3-78.8,10.3-116.6,23l-14.2,4.8c-4.7,1.6-9.3,3.6-14,5.4s-9.3,3.6-13.9,5.7l-13.6,6.2c-4.6,2-9,4.3-13.4,6.6L262,59.9
		l-12.9,7.5c-4.3,2.5-8.6,4.9-12.8,7.7l-12.5,8.1c-4.2,2.6-8.1,5.7-12.1,8.5s-8.1,5.7-12,8.7l-11.6,9.2c-3.9,3-7.6,6.2-11.3,9.5
		l-11.1,9.7L155.2,139c-3.5,3.4-7.1,6.7-10.4,10.3c-26.8,27.5-50.3,58-70.2,90.9c-19,31.7-34.7,65.3-46.6,100.3
		C4.4,408.8-2.3,478.1,0.8,540.7C0.1,514.9,0,478,4.9,441.5z M763.4,919.8c16.3-10.4,32.1-21.7,47.1-33.8
		C795.6,898.3,779.8,909.6,763.4,919.8z M979.6,632.8c-1.6,4.8-3,9.5-4.7,14l-5.2,13.3l-2.5,6.6l-2.8,6.5c-1.8,4.3-3.6,8.7-5.4,13.2
		c-10,24.4-21.8,48-35.4,70.5c-13.6,22.4-29,43.7-46,63.7c-8.3,10-17.3,19.3-26.2,28.7l-13.9,13.3c-4.5,4.5-9.5,8.5-14.3,12.7
		c-4,3.4-8,6.7-12,10c14.9-12,29.1-25,42.4-38.7c-19.4,19.7-40.4,37.8-62.8,53.9c-5.6,3.8-11,7.9-16.7,11.5L756.8,923l-18.4,10.3
		c-6.3,3.4-12.9,6.5-19.5,9.8c3.9-2.3,8.9-5,14.4-8c5.5-3,11.3-6.5,16.9-9.8s10.8-6.7,15.1-9.6c3.3-2.1,6.4-4.4,9.4-6.9
		c-2.5,1.7-5,3.3-7.5,4.9c2.7-1.8,5.4-3.5,8.1-5.4c-0.1,0.1-0.3,0.3-0.5,0.5c58.6-39.5,108.4-90.8,146.3-150.5
		c37.4-58.8,62-124.7,72.4-193.6C991.6,587.9,987,610.8,979.6,632.8z M943.8,287.2c-1.6-3.6-3.2-7.3-5-10.8
		C940.7,279.9,942.3,283.6,943.8,287.2z M898.4,220c16.2,24,30.1,49.4,41.8,75.9c1.3,2.9,2.6,5.8,3.9,8.8
		c26.3,63.7,38.9,132.2,37,201.1c0.3-22.5-0.9-44.9-3.6-67.2c-3-25.7-8.1-51-15.2-75.8c-13.7-49.8-36.1-96.9-64.5-139.9
		c2.6,3.5,5.4,7.4,8.2,11.5c2.8,4.1,5.8,8.4,8.5,13l-3.4-5.9l-3.7-5.7l-7.4-11.4c-5-7.5-10.5-14.8-15.8-22.2
		c-5.7-7.1-11.1-14.3-17.1-21.2c-4.5-5-8.8-10.2-13.4-15.2C870.2,182.6,885.1,200.7,898.4,220z M520.8,6.1
		c7.9,0.4,15.8,1.2,23.7,1.7c6.5,0.5,12.9,1.5,19.3,2.2c1.9,0.1,3.9,0.2,6.5,0.5c2.5,0.3,5.6,1,9.5,1.9C609.2,17.2,636,24.5,655,32
		c35.5,13.1,69.4,29.9,101.4,50c30.8,19.5,58.5,41.7,82,66c10.8,11.5,7.7,9,1.7,3.4l8.9,9.3c-4-3.9-7.8-7.8-11.9-11.6l-12.4-11
		c3,2.6,10.3,8.8,15.3,13.3c-39.7-39.9-85.8-72.8-136.5-97.4c-49.9-24-103.5-39.4-158.6-45.4c8.7,1,13,1.2,17,1.3
		c-5.8-0.7-11.7-1.6-17.6-2.1c-8-0.5-15.9-1.2-23.8-1.6l-23.4-0.5C505,5.7,512.9,5.9,520.8,6.1z"/>
	<path class="st0" d="M623.3,976.8l2.3-0.7c-2.4,0.6-4.8,1.3-7.2,1.9C620,977.6,621.6,977.2,623.3,976.8z"/>
	<path class="st0" d="M862.4,773.3c22.4-29.4,41.1-61.4,55.7-95.3h-0.2c-32.6,75.4-84.9,140.7-151.4,189
		c12.8-8.7,24.3-17.2,34.5-24.9C815.6,827.3,839.8,803,862.4,773.3z"/>
	<path class="st0" d="M190,861.2c38.6,33.9,85,63.4,136.8,83.3c20.2,7.6,40.8,13.9,61.8,18.6c10.5,2.6,21.1,4.3,31.7,6.2
		c5.3,0.9,10.7,1.4,16,2.2c5.3,0.7,10.7,1.4,16.1,1.8c-24.3-2.6-48.4-6.6-71.9-12.9c-23.4-6.2-46.3-14-68.6-23.5
		c-22-9.7-43.4-20.9-63.9-33.4C227.7,890.8,208.3,876.7,190,861.2z"/>
	<path class="st0" d="M665.9,921.7l-11.9,4.6l-12.2,4c-8.1,2.9-16.4,5-24.7,7.3c8.3-2.1,16.7-4,24.9-6.6l12.3-3.7l12-4.3
		C665.8,922.7,663,923.2,665.9,921.7z"/>
	<path class="st0" d="M525.1,951.8c-6.2,0.5-12.5,0.5-18.8,0.5s-12.6,0.2-18.9-0.2l8.5,0.8c2.6,0.2,4.9,0.4,7,0.6
		C510.3,952.9,517.7,952.7,525.1,951.8z"/>
	<path class="st0" d="M276.5,894.9c7.2,4.2,14.9,7.8,22.5,11.9c3.2,1.4,6.4,2.7,9.7,3.7c-9.3-3.9-18.1-8.7-27.1-13.2
		c-4.5-2.3-8.8-4.9-13.1-7.4s-8.7-4.9-12.8-7.6c1.7,1.1,3.3,2.2,5,3.3l5.3,3.1L276.5,894.9z"/>
</g>
<path id="SvgjsG1384" class="st0" d="M482.6,253.8l7.8,23.8l-6.4,2l-7.9-23.8L482.6,253.8z M517.3,253.8l6.4,2l-7.8,23.8l-6.4-2
	L517.3,253.8z M476.2,255.9c-8.3-25.3-0.9-53.1,18.8-70.9c19.1-17.2,23.7-45.4,10.9-67.7l-6.1-10.7l10.7,6.2
	c0.9,0.5,1.8,1.1,2.6,1.6c10.1,6.7,17,17.2,19.3,29.1c2.3,11.8-0.3,24.1-7.2,34c-7.4,10.6-8.8,24.4-3.5,36.2
	c5.9,13.3,6.6,28.3,2,42.1l-6.4-2c4.1-12.3,3.4-25.6-1.8-37.5c-6.2-13.9-4.6-30.1,4.2-42.6c9.9-14.3,9-33.6-2.4-46.8
	c6.8,22.6-0.1,47.1-17.7,62.9c-17.8,16.1-24.5,41.2-17,64.1L476.2,255.9z M469.5,311.2l-1-6.5c10.6-1.6,17.9-11.4,16.3-21.9
	c0,0,0-0.1,0-0.1c-0.2-1-0.4-2-0.7-3l6.3-2c0.4,1.3,0.8,2.6,1,3.9c1.1,6.8-0.6,13.7-4.7,19.2C482.6,306.4,476.4,310.1,469.5,311.2z
	 M530.4,311.2c-1.4-0.2-2.7-0.5-4-0.9c-13.6-4.2-21.2-18.7-17-32.3c0-0.1,0.1-0.2,0.1-0.3l6.4,2c-3.3,10.1,2.2,20.9,12.3,24.2
	c0.1,0,0.2,0.1,0.3,0.1c1,0.3,2,0.5,3,0.7L530.4,311.2z M406.1,271.2l14.9,20.2l-5.4,3.9l-14.9-20.2L406.1,271.2z M439,261h7v25h-7
	V261z M400.7,275.4c-15.8-21.4-17.5-50.1-4.4-73.2c12.8-22.3,8.2-50.5-10.9-67.7l-9.1-8.3l12.2,2.7c1,0.2,2,0.5,3,0.8
	c11.7,3.3,21.6,11.1,27.5,21.8c5.9,10.5,7.3,23,3.8,34.5c-3.7,12.4-0.7,25.9,8,35.6c9.7,10.8,15.1,24.9,15.1,39.5h-6.7
	c0-13-4.8-25.5-13.5-35.1c-10.2-11.3-13.8-27.2-9.4-41.8c4.9-16.8-2.1-34.7-17-43.8c13.5,19.3,14.6,44.7,2.9,65.2
	c-11.9,20.9-10.3,46.8,3.9,66.1L400.7,275.4z M411.7,329.7l-3-5.9c4.6-2.3,8.1-6.3,9.7-11.2c1.6-4.9,1.2-10.2-1.2-14.7
	c-0.5-0.9-1-1.8-1.6-2.6l5.4-3.9c4.9,6.7,6.3,15.3,3.7,23.2C422.6,321.2,417.9,326.6,411.7,329.7z M465.4,311.9
	c-14.4,0.1-26.2-11.5-26.3-25.9h6.7c0.1,10.7,8.9,19.4,19.6,19.3c1,0,2.1-0.1,3.1-0.2l1,6.5C468.2,311.8,466.8,311.9,465.4,311.9z
	 M338.8,310.9l20.6,14.7l-3.9,5.4l-20.6-14.7L338.8,310.9z M373.2,288.8l7.9,23.8l-6.4,2l-7.9-23.8L373.2,288.8z M334.8,316.3
	c-21.7-15.4-32.3-42.2-27.1-68.3c5.1-25.2-8.1-50.6-31.6-61l-11.2-5.1l12.4-1.2c1-0.1,2.1-0.2,3.1-0.2c25.4-0.7,46.7,19,47.5,44
	c0.4,13,7.5,24.9,18.8,31.4c12.6,7.4,22.1,19.1,26.7,32.9l-6.4,2c-4.1-12.3-12.6-22.8-23.8-29.3c-13.3-7.6-21.6-21.6-22.1-36.9
	c-0.6-17.5-12.9-32.4-29.9-36.5c18.9,14.2,27.9,38,23.2,61.1c-4.7,23.6,4.9,47.7,24.5,61.6L334.8,316.3z M362.5,365l-4.8-4.7
	c7.5-7.4,7.7-19.4,0.3-27c-0.1-0.1-0.2-0.2-0.3-0.3c-0.7-0.7-1.5-1.4-2.3-2l3.9-5.3c11.6,8.3,14.2,24.4,5.9,36
	C364.4,362.9,363.4,364,362.5,365L362.5,365z M399.7,332.5c-4.1,0-8.2-1-11.9-2.8c-6.2-3.1-10.9-8.5-13.1-15.1l6.4-2
	c1.6,4.9,5.1,8.9,9.7,11.2c4.6,2.4,10,2.8,14.9,1.2c1-0.3,1.9-0.7,2.8-1.2l3,5.9c-1.2,0.6-2.5,1.1-3.8,1.5
	C405.2,332.1,402.5,332.5,399.7,332.5z M287.3,369.2l24.2,7.7l-2.1,6.3l-24.2-7.7L287.3,369.2z M313.1,337.6l14.9,20.2l-5.4,3.9
	l-14.9-20.2L313.1,337.6z M285.2,375.5c-25.5-8-44-30.2-47.3-56.7c-3.2-25.6-23.5-45.7-49.2-48.4l-12.3-1.4l11.4-4.9
	c0.9-0.4,1.9-0.8,2.9-1.1c24-8.4,50.4,3.9,59,27.4c4.5,12.3,15,21.4,27.7,24.1c14.3,3.1,27.1,11.4,35.8,23.2l-5.5,3.9
	c-7.8-10.5-19.1-17.8-31.9-20.6c-15-3.2-27.3-13.9-32.6-28.4c-6.1-16.5-22.4-26.9-39.9-25.6c22.4,7.7,38.4,27.5,41.3,51
	c3,23.9,19.7,43.9,42.7,51.2L285.2,375.5z M326.7,413.3l-6-3c2.4-4.5,2.8-9.8,1.2-14.7c-1.6-4.9-5.1-8.9-9.7-11.2
	c-0.9-0.5-1.9-0.9-2.8-1.2l2.1-6.3c1.3,0.4,2.6,0.9,3.8,1.6c6.2,3.1,10.9,8.5,13.1,15.1C330.5,400,329.9,407.2,326.7,413.3z
	 M343.9,372c-1.4,0-2.8-0.1-4.2-0.3c-6.9-1-13-4.8-17.2-10.3l5.4-3.9c6.4,8.6,18.6,10.5,27.3,4.3c0.8-0.6,1.6-1.3,2.3-2l4.8,4.7
	C357.6,369.3,350.9,372,343.9,372L343.9,372z M257,440h25v7h-25V440z M271.2,402.4l20.6,14.7l-3.9,5.4l-20.6-14.7L271.2,402.4z
	 M257,447c-26.8,0.1-51.2-15.3-62.7-39.5c-11.1-23.4-36.7-36.2-62.1-31.1l-12.2,2.4l9.3-8.1c0.8-0.7,1.6-1.3,2.4-1.9
	c20.2-15.3,48.9-11.7,64.7,8.2c8.1,10.3,20.9,15.8,34,14.5c14.7-1.4,29.3,2.6,41.3,11.1l-3.9,5.3c-10.7-7.6-23.7-11.1-36.8-9.9
	c-15.3,1.5-30.4-4.9-39.9-17c-6.4-8.2-15.8-13.5-26.2-14.7c-6.7-0.9-13.6,0-19.9,2.5c23.8,0.5,45.2,14.5,55.3,36
	c10.4,21.8,32.5,35.7,56.6,35.7L257,447L257,447z M308,470.2l-6.6-1c1.6-10.6-5.7-20.4-16.3-22c0,0,0,0,0,0c-1-0.2-2-0.2-3.1-0.2
	v-6.6c1.4,0,2.8,0.1,4.1,0.3C300.3,442.7,310.1,455.9,308,470.2C308,470.1,308,470.2,308,470.2z M303.2,427.4
	c-5.5,0-10.9-1.7-15.4-5l3.9-5.3c4.2,3,9.5,4.3,14.6,3.4c5.1-0.8,9.7-3.5,12.8-7.7c0.6-0.8,1.1-1.7,1.6-2.6l6,3
	c-0.6,1.2-1.4,2.4-2.2,3.5c-4.1,5.6-10.3,9.3-17.2,10.3C306,427.3,304.6,427.4,303.2,427.4z M273.8,509.5l2.1,6.3l-24.2,7.7
	l-2.1-6.3L273.8,509.5z M251.8,476.8l24.2,7.7l-2.1,6.3l-24.2-7.7L251.8,476.8z M230.5,526.8c-19.2,0-37.6-7.9-50.9-21.8
	c-17.8-18.9-46.1-23.3-68.8-10.7l-10.8,6l6.3-10.5c0.5-0.9,1.1-1.7,1.7-2.6c6.9-10,17.6-16.8,29.5-19c12-2.3,24.4,0.3,34.6,7.1
	c10.9,7.3,24.8,8.6,36.8,3.5c13.6-5.8,28.8-6.5,42.8-2l-2.1,6.3c-12.5-4-26-3.4-38.1,1.8c-14.2,6.1-30.5,4.5-43.3-4.1
	c-14.7-9.8-34-8.8-47.6,2.4c22.9-6.7,47.6,0,63.9,17.4c16.7,17.6,42,24.1,65.1,16.7l2.1,6.3C244.8,525.7,237.7,526.8,230.5,526.8z
	 M301.3,531.1c-1.9-10.7-12.1-17.8-22.8-15.9c-0.9,0.2-1.7,0.4-2.6,0.6l-2.1-6.3c13.9-4.5,28.8,3.2,33.3,17.1
	c0.4,1.1,0.6,2.3,0.9,3.4L301.3,531.1z M281.9,492c-2.8,0-5.5-0.4-8.1-1.3l2.1-6.3c10.2,3.3,21.2-2.2,24.7-12.4c0.3-1,0.6-2,0.7-3
	l6.6,1c-0.2,1.3-0.5,2.7-1,4C303.3,484.9,293.2,492.1,281.9,492z M287.9,577.8l4,5.4l-20.6,14.7l-3.9-5.3L287.9,577.8z M257,553h25
	v7h-25V553z M120.1,621.9l2.7-12c0.2-1,0.5-2,0.8-2.9c7.1-24,32.8-37.8,57.2-30.8c12.6,3.7,26.2,0.7,36.1-7.9
	c11.1-9.6,25.4-14.9,40.1-14.9v6.6c-13.1,0-25.8,4.6-35.7,13.2c-11.7,10.1-27.6,13.6-42.5,9.3c-16.9-4.9-35,1.9-44.5,16.7
	c19.8-13.3,45.4-14.4,66.2-2.8c21.3,11.7,47.4,10.2,67.2-3.9l3.9,5.3c-21.9,15.6-50.8,17.2-74.4,4.3c-22.7-12.6-51-8.1-68.8,10.8
	L120.1,621.9z M320.7,590c-2.4-4.6-6.5-8-11.4-9.6c-4.9-1.6-10.3-1.1-14.9,1.2c-0.9,0.5-1.8,1-2.6,1.6l-3.9-5.3
	c1.1-0.8,2.3-1.5,3.5-2.1c6.2-3.1,13.4-3.7,20.1-1.5c6.6,2.1,12.1,6.7,15.3,12.9L320.7,590z M282,560v-6.6
	c10.6,0.2,19.4-8.3,19.6-18.9c0-1.1-0.1-2.2-0.2-3.3l6.6-1c0.2,1.3,0.3,2.7,0.3,4C308.2,548.5,296.4,560.1,282,560z M322.6,638.5
	l5.4,3.9l-15,20.2l-5.4-3.9L322.6,638.5z M309.4,617.1l2.1,6.3l-24.2,7.7l-2.1-6.3L309.4,617.1z M176.5,731.6l-1.2-12.2
	c-0.1-1-0.2-2-0.2-3c-0.8-25,19.3-46,44.7-46.7c13.1-0.3,25.1-7.3,31.9-18.5c7.6-12.6,19.5-22,33.5-26.4l2.1,6.3
	c-12.4,3.9-23,12.3-29.8,23.4c-7.9,13.2-22.1,21.4-37.5,21.7c-17.5,0.4-32.7,12.4-37.1,29.4c14.7-18.7,38.7-27.5,62.1-22.8
	c23.8,4.7,48.1-4.7,62.6-24.1l5.4,3.9c-16.1,21.5-43.1,31.9-69.4,26.7c-25.4-5.2-51,7.7-62,31.1L176.5,731.6z M328,642.4l-5.4-3.9
	c0.8-1.1,1.7-2.1,2.7-3.1c10.3-10.1,26.9-10.1,37.2,0l-4.8,4.7c-7.7-7.5-20-7.5-27.7,0C329.3,640.8,328.6,641.6,328,642.4z
	 M311.4,623.3l-2.1-6.3c10.1-3.1,15.8-13.9,12.7-24c0-0.1-0.1-0.2-0.1-0.3c-0.3-1-0.7-1.9-1.2-2.8l6-3c0.6,1.2,1.2,2.5,1.6,3.7
	c4.4,13.6-3.1,28.2-16.7,32.6C311.6,623.3,311.5,623.3,311.4,623.3z M374.7,685.7l6.4,2l-7.8,23.8l-6.4-2L374.7,685.7z M355.4,669.3
	l3.9,5.3l-20.6,14.7l-3.9-5.3L355.4,669.3z M265,818.6l-5-11.2c-0.4-0.9-0.8-1.9-1.1-2.8c-8.4-23.5,3.8-49.4,27.3-57.9
	c0.2-0.1,0.4-0.1,0.5-0.2c12.3-4.2,21.6-14.6,24.5-27.3c3.3-14.2,11.7-26.8,23.6-35.2l3.9,5.3c-10.6,7.5-18,18.7-21,31.3
	c-3.4,14.9-14.3,27.1-28.8,32.1c-16.5,5.7-27.2,21.8-26,39.3c8.2-22.3,28.3-38,51.9-40.6c24-2.7,44.3-19.1,52-42l6.4,2
	c-8.6,25.3-31,43.5-57.6,46.5c-25.7,2.8-46,22.8-49.2,48.5L265,818.6z M381.1,687.7l-6.4-2c0.4-1.3,0.9-2.6,1.6-3.8
	c6.7-12.8,22.5-17.8,35.4-11.3l-3,5.9c-9.6-4.9-21.4-1.2-26.4,8.5C381.8,685.8,381.4,686.7,381.1,687.7L381.1,687.7z M359.3,674.6
	l-3.9-5.3c8.6-6.1,10.7-18,4.6-26.6c-0.1-0.1-0.2-0.2-0.2-0.3c-0.6-0.8-1.3-1.6-2-2.3l4.7-4.7c1,1,1.9,2,2.7,3.1
	c8.4,11.4,6,27.5-5.4,35.9C359.6,674.4,359.5,674.5,359.3,674.6z M439,715h7v25h-7V715z M415.6,705l5.4,3.9l-14.9,20.3l-5.4-3.9
	L415.6,705z M376.5,874.9l-8.3-9.2c-0.7-0.8-1.3-1.5-2-2.4c-7.5-9.5-10.8-21.5-9.3-33.5c1.6-12,7.9-22.9,17.5-30.1
	c10.4-7.8,16-20.4,14.7-33.4c-1.4-14.5,2.7-29,11.3-40.7l5.4,3.9c-7.7,10.4-11.3,23.3-10.1,36.2c1.5,15.2-5.1,30.1-17.3,39.3
	c-8.3,6.2-13.7,15.5-15,25.7c-0.9,6.6,0,13.4,2.6,19.5c0.7-23.7,14.9-44.8,36.6-54.4c22-9.9,36.1-31.7,36.3-55.7h6.7
	c-0.1,26.7-15.9,50.8-40.2,61.7c-23.6,10.4-36.7,35.8-31.6,61.1L376.5,874.9z M445.8,715h-6.7c0-1.4,0.1-2.7,0.3-4.1
	c2.4-14.2,15.9-23.8,30.1-21.5l-1.1,6.5c-10.6-1.7-20.6,5.4-22.4,16C445.9,713,445.9,714,445.8,715z M421,708.8l-5.4-3.9
	c6.3-8.5,4.5-20.4-4-26.7c-0.1-0.1-0.2-0.2-0.3-0.2c-0.8-0.6-1.7-1.1-2.6-1.6l3-5.9c1.2,0.6,2.4,1.3,3.5,2.1
	c11.5,8.1,14.3,24.1,6.1,35.7C421.3,708.5,421.1,708.7,421,708.8z M515.8,720.6l7.9,23.8l-6.4,2l-7.9-23.8L515.8,720.6z
	 M484.1,720.6l6.4,2l-7.8,23.8l-6.4-2L484.1,720.6z M500.1,893.6l-10.7-6.2c-0.9-0.5-1.8-1.1-2.6-1.6
	c-20.7-13.7-26.3-41.6-12.6-62.3c0.2-0.2,0.3-0.5,0.5-0.7c7.4-10.6,8.8-24.4,3.5-36.2c-5.9-13.3-6.6-28.3-2-42.1l6.4,2
	c-4.1,12.3-3.4,25.6,1.8,37.5c6.2,13.9,4.6,30.1-4.2,42.6c-9.9,14.3-8.9,33.6,2.4,46.8c-6.7-22.6,0.2-47.1,17.7-62.9
	c17.8-16.1,24.5-41.2,17-64.1l6.4-2c8.3,25.3,0.9,53.1-18.8,70.9c-19.1,17.2-23.7,45.4-10.9,67.7L500.1,893.6z M509.5,722.6
	c-0.4-1.3-0.8-2.6-1-4c-1.1-6.8,0.6-13.7,4.7-19.2c4.1-5.6,10.3-9.3,17.2-10.3l1.1,6.5c-5.1,0.8-9.7,3.6-12.8,7.7
	c-3.1,4.1-4.3,9.3-3.5,14.3c0.2,1,0.4,2,0.7,3L509.5,722.6z M490.4,722.6l-6.4-2c1.6-4.9,1.2-10.2-1.2-14.7c-2.4-4.6-6.5-8-11.4-9.6
	c-1-0.3-2-0.5-3-0.7l1-6.5c1.4,0.2,2.7,0.5,4,0.9c6.6,2.1,12.1,6.7,15.3,12.9C492,709,492.6,716.1,490.4,722.6z M584.3,705
	l14.9,20.2l-5.4,3.9l-14.9-20.2L584.3,705z M554,715h7v25h-7V715z M623.8,874.8l-12.2-2.7c-1-0.2-2-0.5-3-0.8
	c-11.7-3.3-21.6-11.2-27.5-21.8c-5.9-10.5-7.3-23-3.8-34.5c3.7-12.4,0.7-25.9-8-35.6c-9.7-10.8-15.1-24.9-15.1-39.5h6.7
	c0,13,4.8,25.5,13.5,35.1c10.2,11.3,13.8,27.2,9.4,41.8c-3,9.9-1.8,20.5,3.3,29.5c3.3,5.9,8,10.8,13.7,14.3
	c-13.5-19.3-14.7-44.7-2.9-65.2c11.9-20.9,10.3-46.8-3.9-66.1l5.4-3.9c15.8,21.4,17.5,50.1,4.4,73.2c-12.8,22.3-8.2,50.5,10.9,67.7
	L623.8,874.8z M578.9,708.8c-0.8-1.1-1.5-2.2-2.1-3.5c-3.2-6.1-3.8-13.2-1.6-19.8c2.2-6.6,6.9-12,13.1-15.1l3,5.9
	c-4.6,2.3-8.1,6.3-9.7,11.2c-1.6,4.9-1.2,10.2,1.2,14.7c0.5,0.9,1,1.8,1.6,2.6L578.9,708.8z M560.8,715h-6.7
	c-0.1-10.7-8.9-19.4-19.6-19.3c-1,0-2.1,0.1-3.1,0.2l-1.1-6.5c1.4-0.2,2.8-0.3,4.1-0.3C548.9,689,560.7,700.6,560.8,715z
	 M644.5,669.3l20.6,14.7l-3.9,5.3l-20.6-14.7L644.5,669.3z M625.2,685.6l7.8,23.8l-6.4,2l-7.8-23.8L625.2,685.6z M718.4,819.8
	c-24.8,0-45.3-19.5-46.1-44c-0.4-13-7.5-24.9-18.8-31.4c-12.6-7.3-22.2-19.1-26.8-32.9l6.4-2c4.1,12.4,12.6,22.8,23.8,29.3
	c13.3,7.6,21.6,21.6,22.1,36.8c0.3,10.3,4.7,20.1,12.3,27.1c5,4.6,11,7.9,17.6,9.4c-18.9-14.2-27.9-38-23.2-61.1
	c4.7-23.6-4.9-47.7-24.5-61.6l3.9-5.3c21.7,15.4,32.3,42.2,27.1,68.3c-5.1,25.3,8.1,50.6,31.7,61l11.3,5.1l-12.4,1.2
	c-1,0.1-2,0.2-3.1,0.2L718.4,819.8z M640.6,674.6c-1.1-0.8-2.1-1.7-3.1-2.6c-10.1-9.9-10.3-26-0.5-36.2c0.1-0.2,0.3-0.3,0.5-0.5
	l4.8,4.7c-7.5,7.3-7.7,19.4-0.4,26.9c0.1,0.1,0.2,0.2,0.4,0.4c0.7,0.7,1.5,1.4,2.3,2L640.6,674.6z M618.8,687.7
	c-3.5-10.2-14.5-15.7-24.7-12.4c-1,0.3-1.9,0.7-2.8,1.2l-3.1-5.9c1.2-0.6,2.5-1.1,3.8-1.5c6.6-2.1,13.8-1.6,20.1,1.5
	c6.2,3.1,10.9,8.5,13.1,15.1L618.8,687.7z M690.6,617l24.2,7.7l-2.1,6.3l-24.2-7.7L690.6,617z M677.3,638.5l15,20.2l-5.4,3.9
	l-15-20.2L677.3,638.5z M793.9,740c-19.4,0.1-36.7-11.9-43.5-30.1c-4.5-12.3-15-21.4-27.7-24.1c-14.4-3.1-27.1-11.4-35.8-23.2
	l5.4-3.9c7.8,10.5,19.1,17.8,31.9,20.6c15,3.2,27.4,13.9,32.6,28.3c6.2,16.4,22.4,26.9,39.9,25.6c-22.4-7.7-38.4-27.5-41.3-51
	c-3-23.9-19.7-43.9-42.7-51.2l2-6.3c25.5,8.1,43.9,30.2,47.3,56.7c3.2,25.6,23.6,45.7,49.3,48.4l12.4,1.4l-11.4,4.9
	c-0.9,0.4-1.9,0.8-2.9,1.1C804.4,739,799.2,739.9,793.9,740z M688.5,623.3c-1.3-0.4-2.6-0.9-3.8-1.5c-6.2-3.1-10.9-8.5-13.1-15
	c-2.2-6.5-1.6-13.6,1.6-19.7l6,3c-4.8,9.4-1.1,21,8.4,25.8c0.1,0,0.1,0.1,0.2,0.1c0.9,0.5,1.9,0.9,2.8,1.2L688.5,623.3z
	 M671.9,642.4c-6.4-8.6-18.6-10.5-27.4-4.2c-0.8,0.6-1.6,1.2-2.3,2l-4.8-4.7c1-1,2-1.8,3.1-2.6c11.8-8.4,28.1-5.9,36.7,5.7
	L671.9,642.4z M718,553h25v7h-25V553z M712.1,577.8l20.6,14.7l-3.9,5.3l-20.6-14.7L712.1,577.8z M840.2,641.1c-2,0-4-0.1-6-0.4
	c-12.1-1.5-23.1-7.7-30.6-17.3c-8.1-10.3-20.9-15.8-33.9-14.5c-14.7,1.4-29.4-2.6-41.3-11.1l3.9-5.3c10.7,7.6,23.7,11.1,36.8,9.9
	c15.3-1.5,30.4,4.9,39.9,17c6.4,8.2,15.8,13.5,26.2,14.8c6.7,0.8,13.6,0,19.9-2.5c-23.8-0.5-45.2-14.5-55.3-36
	c-10.4-21.8-32.4-35.7-56.6-35.7v-6.6c26.8,0,51.2,15.3,62.7,39.5c11.1,23.4,36.7,36.3,62.1,31.1l12.3-2.4l-9.4,8.1
	c-0.8,0.7-1.6,1.3-2.4,1.9C860.2,637.8,850.3,641.1,840.2,641.1z M718,560c-1.4,0-2.7-0.1-4.1-0.3c-14.2-2.1-24-15.3-21.9-29.5
	c0,0,0-0.1,0-0.1l6.6,1c-1.6,10.6,5.6,20.4,16.2,22c0,0,0.1,0,0.1,0c1,0.2,2,0.2,3.1,0.2L718,560z M679.2,590l-6-3
	c0.6-1.2,1.4-2.4,2.2-3.5c8.6-11.6,25-14.1,36.7-5.7l-3.9,5.3c-8.8-6.3-20.9-4.4-27.4,4.3C680.2,588.2,679.7,589.1,679.2,590z
	 M748.2,476.8l2.1,6.3l-24.2,7.7l-2.1-6.3L748.2,476.8z M726.1,509.5l24.2,7.7l-2.1,6.3l-24.2-7.7L726.1,509.5z M853.8,532.9
	c-9.2,0-18.2-2.7-25.9-7.9c-10.9-7.3-24.8-8.6-36.9-3.5c-13.6,5.8-28.8,6.5-42.8,2l2.1-6.3c12.5,4,26,3.4,38.1-1.8
	c14.2-6.1,30.5-4.5,43.3,4.1c14.7,9.8,34,8.8,47.6-2.4c-22.9,6.7-47.6-0.1-63.9-17.4c-16.7-17.6-42-24.1-65.1-16.7l-2.1-6.3
	c25.6-8.2,53.7-1,72.2,18.6c17.8,18.9,46.1,23.3,68.8,10.7l10.9-6l-6.3,10.6c-0.5,0.9-1.1,1.7-1.6,2.6c-6.9,10-17.6,16.8-29.5,19
	C859.6,532.6,856.7,532.9,853.8,532.9z M717.9,492c-5.5,0-10.9-1.7-15.4-5c-5.6-4-9.4-10.1-10.5-16.9l6.6-1
	c0.8,5.1,3.6,9.6,7.8,12.6c4.2,3,9.5,4.3,14.6,3.4c1-0.2,2-0.4,3-0.7l2.1,6.3c-1.3,0.4-2.6,0.7-4,0.9
	C720.7,491.9,719.3,492,717.9,492z M698.7,531.1l-6.6-1c0.2-1.3,0.5-2.7,1-4c4.6-13.7,19.4-21.1,33.1-16.6l-2.1,6.3
	c-10.2-3.3-21.2,2.2-24.7,12.4C699,529.1,698.8,530.1,698.7,531.1z M728.8,402.4l3.9,5.3l-20.6,14.7l-3.9-5.4L728.8,402.4z M718,440
	h25v7h-25V440z M743,446.9v-6.6c13.1,0,25.8-4.7,35.7-13.3c11.7-10.1,27.7-13.6,42.5-9.3c10,2.9,20.8,1.8,30-3.2
	c5.9-3.2,10.9-7.8,14.6-13.5c-19.8,13.3-45.4,14.4-66.3,2.9c-21.3-11.7-47.4-10.2-67.2,3.9l-3.9-5.3c21.9-15.5,50.8-17.2,74.4-4.3
	c22.7,12.6,51,8.2,68.8-10.7l8.5-9.1l-2.8,12c-0.2,1-0.5,2-0.8,3c-3.5,11.6-11.4,21.4-22.1,27c-10.7,5.8-23.4,7.2-35.1,3.8
	c-12.6-3.7-26.2-0.7-36.1,7.9C772,441.6,757.7,446.9,743,446.9z M696.7,427.4c-2.8,0-5.5-0.4-8.1-1.3c-6.6-2.1-12.1-6.7-15.3-12.9
	l6-3c2.4,4.6,6.5,8,11.4,9.6c4.9,1.6,10.3,1.1,15-1.2c0.9-0.5,1.8-1,2.6-1.6l3.9,5.4c-1.1,0.8-2.3,1.5-3.5,2.1
	C704.9,426.4,700.8,427.4,696.7,427.4z M692,470.2c-0.2-1.3-0.3-2.7-0.3-4.1c0.1-14.4,11.9-26,26.3-25.9v6.6
	c-10.6-0.2-19.4,8.2-19.6,18.8c0,1.2,0.1,2.3,0.2,3.5L692,470.2z M686.8,337.7l5.4,3.9l-15,20.2l-5.4-3.9L686.8,337.7z M712.7,369.2
	l2.1,6.3l-24.2,7.7l-2.1-6.3L712.7,369.2z M714.8,375.5l-2.1-6.3c12.4-3.9,23-12.3,29.8-23.4c7.9-13.2,22.1-21.4,37.4-21.7
	c10.4-0.3,20.3-4.6,27.5-12.2c4.7-4.8,8-10.8,9.6-17.3c-14.7,18.7-38.7,27.6-62.1,22.9c-23.8-4.7-48.1,4.7-62.7,24.1l-5.4-3.9
	c16.1-21.5,43.1-31.9,69.4-26.7c25.4,5.1,51-7.7,62-31.1l5.2-11.1l1.2,12.2c0.1,1,0.2,2,0.2,3c0.4,12.1-4.1,23.8-12.5,32.5
	c-8.4,8.8-20,13.9-32.2,14.2c-13.1,0.3-25.1,7.3-31.9,18.5C740.7,361.7,728.8,371,714.8,375.5z M656.1,372.4c-7,0-13.6-2.7-18.6-7.6
	l4.8-4.7c7.7,7.5,20,7.5,27.7,0c0.7-0.7,1.4-1.5,2-2.3l5.4,3.9c-0.8,1.1-1.7,2.1-2.7,3.1C669.7,369.7,663,372.5,656.1,372.4z
	 M673.2,413.3c-0.6-1.2-1.1-2.5-1.6-3.8c-2.2-6.5-1.6-13.7,1.6-19.8c3.2-6.2,8.7-10.8,15.3-12.9l2.1,6.3c-4.9,1.6-9,5-11.4,9.6
	c-2.8,5.5-2.8,12,0,17.5L673.2,413.3z M626.6,288.8l6.4,2l-7.9,23.8l-6.4-2.1L626.6,288.8z M661.1,310.9l3.9,5.3L644.5,331l-4-5.3
	L661.1,310.9z M665.1,316.3l-3.9-5.4c10.6-7.5,18-18.7,20.9-31.4c3.4-14.9,14.3-27.1,28.8-32.1c9.8-3.4,17.9-10.5,22.4-19.9
	c2.9-6,4.2-12.7,3.7-19.4c-8.2,22.3-28.3,38-51.9,40.6c-24,2.7-44.3,19.1-52,42l-6.4-2.1c8.6-25.4,31-43.5,57.6-46.5
	c25.7-2.8,46-22.8,49.2-48.5l1.4-12.2l5,11.2c0.4,0.9,0.8,1.9,1.1,2.8c4.2,11.3,3.5,23.8-1.7,34.7c-5.3,10.9-14.7,19.3-26.1,23.3
	c-12.3,4.3-21.6,14.6-24.5,27.3C685.4,295.3,677,307.8,665.1,316.3z M600.1,332.5c-4.1,0-8.2-1-11.9-2.8l3-5.9
	c9.6,4.9,21.4,1.1,26.4-8.4c0.5-0.9,0.9-1.8,1.2-2.8l6.4,2.1c-0.4,1.3-0.9,2.5-1.6,3.7C619.1,327.1,610,332.6,600.1,332.5z
	 M637.5,364.9c-1-1-1.9-2-2.7-3.1c-8.4-11.4-6-27.4,5.4-35.9c0.1-0.1,0.3-0.2,0.4-0.3l4,5.3c-8.6,6.1-10.6,18-4.5,26.6
	c0.1,0.1,0.1,0.2,0.2,0.3c0.6,0.8,1.3,1.6,2,2.3L637.5,364.9z M554,261h7v25h-7V261z M593.8,271.2l5.4,3.9l-15,20.2l-5.4-3.9
	L593.8,271.2z M599.3,275.4l-5.4-3.9c7.7-10.4,11.3-23.3,10.1-36.2c-1.5-15.2,5.1-30.1,17.3-39.2c13.9-10.5,19-29.1,12.4-45.3
	c-0.7,23.6-15,44.8-36.6,54.4c-22,9.9-36.1,31.7-36.3,55.8h-6.7c0.1-26.7,15.8-50.8,40.2-61.7c23.6-10.4,36.7-35.8,31.6-61.1
	l-2.4-12l8.2,9.2c0.7,0.8,1.3,1.5,2,2.3c15.3,19.5,11.9,47.8-7.6,63.1c-0.2,0.2-0.5,0.4-0.7,0.5c-10.4,7.8-16,20.5-14.7,33.4
	C612,249.2,608,263.7,599.3,275.4z M534.5,311.9c-1.4,0-2.8-0.1-4.1-0.3l1.1-6.5c10.6,1.7,20.6-5.4,22.4-16c0.2-1,0.3-2,0.3-3h6.7
	c0,1.4-0.1,2.7-0.3,4.1C558.3,302.7,547.3,312,534.5,311.9z M588.2,329.7c-1.2-0.6-2.4-1.3-3.5-2.1c-11.6-8.2-14.3-24.2-6.1-35.7
	c0.1-0.1,0.2-0.3,0.3-0.4l5.4,3.9c-3.1,4.1-4.3,9.3-3.5,14.3c1,6.1,4.9,11.4,10.5,14.2L588.2,329.7z"/>
</svg>
